<?xml version="1.0"?>
<svg xmlns="http://www.w3.org/2000/svg" xmlns:xlink="http://www.w3.org/1999/xlink" xmlns:svgjs="http://svgjs.com/svgjs" version="1.1" width="512" height="512" x="0" y="0" viewBox="0 0 410.309 410.309" style="enable-background:new 0 0 512 512" xml:space="preserve" class=""><g>
<g xmlns="http://www.w3.org/2000/svg">
	<g>
		<path style="" d="M382.955,58.96c16.936,2.176,29.014,17.507,27.167,34.482L386.09,306.079    c-1.848,16.923-17.066,29.144-33.989,27.295c-0.339-0.037-0.677-0.08-1.015-0.128h-1.567V138.372    c0-17.312-14.035-31.347-31.347-31.347H56.947l5.747-52.245c2.179-17.223,17.742-29.535,35.004-27.69L382.955,58.96z" fill="#70a3b5" data-original="#00acea" class=""/>
		<path style="" d="M349.518,333.246v18.808c0,17.312-14.035,31.347-31.347,31.347H31.347    C14.035,383.401,0,369.366,0,352.054v-43.886l86.204-62.694c13.668-10.37,32.794-9.491,45.453,2.09l57.469,50.155    c12.046,10.215,29.238,11.683,42.841,3.657l117.551-68.963V333.246z" fill="#9bc6f9" data-original="#00ceb4" class=""/>
		<path style="" d="M349.518,138.372v94.041l-117.551,68.963c-13.603,8.026-30.795,6.558-42.841-3.657l-57.469-50.155    c-12.659-11.58-31.785-12.46-45.453-2.09L0,308.168V138.372c0-17.312,14.035-31.347,31.347-31.347h286.824    C335.484,107.026,349.518,121.06,349.518,138.372z" fill="#3876c1" data-original="#00efd1" class=""/>
	</g>
	<circle style="" cx="208.98" cy="192.707" r="33.437" fill="#d4e1f4" data-original="#d4e1f4" class=""/>
</g>
<g xmlns="http://www.w3.org/2000/svg">
</g>
<g xmlns="http://www.w3.org/2000/svg">
</g>
<g xmlns="http://www.w3.org/2000/svg">
</g>
<g xmlns="http://www.w3.org/2000/svg">
</g>
<g xmlns="http://www.w3.org/2000/svg">
</g>
<g xmlns="http://www.w3.org/2000/svg">
</g>
<g xmlns="http://www.w3.org/2000/svg">
</g>
<g xmlns="http://www.w3.org/2000/svg">
</g>
<g xmlns="http://www.w3.org/2000/svg">
</g>
<g xmlns="http://www.w3.org/2000/svg">
</g>
<g xmlns="http://www.w3.org/2000/svg">
</g>
<g xmlns="http://www.w3.org/2000/svg">
</g>
<g xmlns="http://www.w3.org/2000/svg">
</g>
<g xmlns="http://www.w3.org/2000/svg">
</g>
<g xmlns="http://www.w3.org/2000/svg">
</g>
</g></svg>
